<svg width="26" height="23" viewBox="0 0 26 23" fill="none" xmlns="http://www.w3.org/2000/svg">
<path d="M14.5861 3.09471L14.5863 3.09447C16.8809 0.726892 20.5623 0.373724 23.014 2.46274C25.8578 4.88992 26.0092 9.25318 23.4581 11.8859L23.458 11.886L14.0098 21.6417C14.0098 21.6417 14.0097 21.6418 14.0097 21.6418C13.5958 22.0688 12.93 22.0688 12.5161 21.6418C12.5161 21.6418 12.5161 21.6417 12.516 21.6417L3.06811 11.8862C0.521546 9.25351 0.672887 4.89011 3.51658 2.46287C5.96845 0.373543 9.65462 0.727135 11.9441 3.09411L11.9446 3.09471L12.9066 4.08592L13.2654 4.45566L13.6242 4.08592L14.5861 3.09471Z" fill="white" stroke="#FF0000"/>
</svg>
