<svg width="18" height="18" viewBox="0 0 18 18" fill="none" xmlns="http://www.w3.org/2000/svg">
<g clip-path="url(#clip0_32_158)">
<path d="M3.75 10.938H4.3125C4.31244 10.8286 4.28049 10.7216 4.22054 10.6301C4.1606 10.5386 4.07527 10.4665 3.975 10.4228L3.75 10.938ZM14.25 10.938L14.025 10.4228C13.9247 10.4665 13.8394 10.5386 13.7795 10.6301C13.7195 10.7216 13.6876 10.8286 13.6875 10.938H14.25ZM11.8125 5.25C11.8125 5.39918 11.8718 5.54226 11.9773 5.64775C12.0827 5.75324 12.2258 5.8125 12.375 5.8125C12.5242 5.8125 12.6673 5.75324 12.7727 5.64775C12.8782 5.54226 12.9375 5.39918 12.9375 5.25H11.8125ZM5.0625 5.25C5.0625 5.39918 5.12176 5.54226 5.22725 5.64775C5.33274 5.75324 5.47582 5.8125 5.625 5.8125C5.77418 5.8125 5.91726 5.75324 6.02275 5.64775C6.12824 5.54226 6.1875 5.39918 6.1875 5.25H5.0625ZM5.25 3.1875C4.10625 3.1875 3.00935 3.64185 2.2006 4.4506C1.39185 5.25935 0.9375 6.35625 0.9375 7.5H2.0625C2.0625 6.65462 2.39832 5.84387 2.9961 5.2461C3.59387 4.64833 4.40462 4.3125 5.25 4.3125V3.1875ZM12.75 4.3125C13.5954 4.3125 14.4061 4.64833 15.0039 5.2461C15.6017 5.84387 15.9375 6.65462 15.9375 7.5H17.0625C17.0625 6.35625 16.6081 5.25935 15.7994 4.4506C14.9906 3.64185 13.8937 3.1875 12.75 3.1875V4.3125ZM11.25 15.9375H6.75V17.0625H11.25V15.9375ZM6.75 15.9375C6.027 15.9375 5.541 15.936 5.17875 15.8873C4.833 15.8408 4.6845 15.7605 4.587 15.6623L3.792 16.4588C4.13325 16.8 4.5585 16.9388 5.0295 17.0025C5.484 17.064 6.0585 17.0625 6.75 17.0625V15.9375ZM3.1875 13.5C3.1875 14.1915 3.186 14.766 3.2475 15.2205C3.3105 15.6915 3.45 16.1168 3.79125 16.458L4.587 15.663C4.4895 15.5655 4.40925 15.417 4.362 15.0705C4.314 14.709 4.3125 14.223 4.3125 13.5H3.1875ZM13.6875 13.5C13.6875 14.223 13.686 14.709 13.6373 15.0713C13.5908 15.417 13.5105 15.5655 13.4122 15.663L14.2087 16.458C14.55 16.1168 14.6888 15.6915 14.7525 15.2205C14.814 14.766 14.8125 14.1915 14.8125 13.5H13.6875ZM11.25 17.0625C11.9415 17.0625 12.516 17.064 12.9705 17.0025C13.4415 16.9395 13.8675 16.8 14.2087 16.458L13.413 15.663C13.3155 15.7605 13.167 15.8408 12.8205 15.888C12.459 15.936 11.973 15.9375 11.25 15.9375V17.0625ZM5.25 4.3125C5.4105 4.3125 5.56725 4.3245 5.721 4.347L5.88525 3.234C5.67492 3.20298 5.4626 3.18743 5.25 3.1875V4.3125ZM9 0.9375C8.17708 0.937501 7.37483 1.19523 6.70588 1.67451C6.03693 2.15379 5.53489 2.83055 5.27025 3.60975L6.33525 3.97125C6.52437 3.41461 6.88308 2.93117 7.36102 2.58883C7.83895 2.24649 8.41211 2.06243 9 2.0625V0.9375ZM5.27025 3.60975C5.13227 4.0173 5.06209 4.44473 5.0625 4.875H6.1875C6.1875 4.55775 6.24 4.254 6.336 3.97125L5.27025 3.60975ZM12.75 3.1875C12.5347 3.1875 12.3225 3.20325 12.1147 3.234L12.2797 4.347C12.4354 4.32401 12.5926 4.31248 12.75 4.3125V3.1875ZM9 2.0625C9.58777 2.06259 10.1608 2.24672 10.6385 2.58905C11.1163 2.93138 11.4749 3.41473 11.664 3.97125L12.729 3.60975C12.4644 2.83067 11.9625 2.154 11.2937 1.67473C10.6249 1.19546 9.82279 0.937658 9 0.9375V2.0625ZM11.664 3.97125C11.76 4.254 11.8125 4.55775 11.8125 4.875H12.9375C12.9375 4.43325 12.864 4.008 12.729 3.60975L11.664 3.97125ZM4.3125 13.5V10.938H3.1875V13.5H4.3125ZM3.975 10.4228C3.40641 10.1745 2.92261 9.76573 2.5829 9.24658C2.24319 8.72742 2.06233 8.12043 2.0625 7.5H0.9375C0.937444 8.33923 1.18221 9.16024 1.64181 9.86243C2.10141 10.5646 2.75588 11.1175 3.525 11.4533L3.975 10.4228ZM13.6875 10.938V13.5H14.8125V10.938H13.6875ZM15.9375 7.5C15.9377 8.12043 15.7568 8.72742 15.4171 9.24658C15.0774 9.76573 14.5936 10.1745 14.025 10.4228L14.475 11.4533C15.2441 11.1175 15.8986 10.5646 16.3582 9.86243C16.8178 9.16024 17.0626 8.33923 17.0625 7.5H15.9375ZM11.8125 4.875V5.25H12.9375V4.875H11.8125ZM5.0625 4.875V5.25H6.1875V4.875H5.0625Z" fill="white"/>
<path d="M3.75 13.5H14.25" stroke="white" stroke-width="1.5" stroke-linecap="round" stroke-linejoin="round"/>
</g>
<defs>
<clipPath id="clip0_32_158">
<rect width="18" height="18" fill="white"/>
</clipPath>
</defs>
</svg>
