<svg width="104" height="31" viewBox="0 0 104 31" fill="none" xmlns="http://www.w3.org/2000/svg">
<path d="M3.11422 26.16C3.01822 26.4 2.83822 26.532 2.57422 26.556C2.33422 26.58 2.01022 26.436 1.60222 26.124C1.31422 25.836 1.12222 25.608 1.02622 25.44C0.954219 25.296 1.00222 25.032 1.17022 24.648C1.33822 24.288 1.62622 23.64 2.03422 22.704C2.13022 22.128 2.29822 21.552 2.53822 20.976C2.77822 20.376 2.95822 19.956 3.07822 19.716C3.17422 19.38 3.36622 18.828 3.65422 18.06C3.96622 17.268 4.31422 16.392 4.69822 15.432C5.10622 14.472 5.49022 13.572 5.85022 12.732C6.21022 11.868 6.47422 11.22 6.64222 10.788C7.05022 9.828 7.47022 8.82 7.90222 7.764C8.33422 6.708 8.92222 5.376 9.66622 3.768C9.76222 3.528 9.81022 3.276 9.81022 3.012C9.83422 2.748 9.64222 2.616 9.23422 2.616C8.99422 2.352 8.86222 2.088 8.83822 1.824C8.81422 1.536 8.93422 1.332 9.19822 1.212L11.0702 0.455998C12.1982 0.191999 13.3502 0.119999 14.5262 0.239999C15.7262 0.335999 16.8542 0.659999 17.9102 1.212C19.0622 1.884 19.8782 2.568 20.3582 3.264C20.8382 3.936 21.0782 4.62 21.0782 5.316C21.1022 6.012 20.9822 6.696 20.7182 7.368C20.5262 7.872 20.1542 8.424 19.6022 9.024C19.0742 9.624 18.4502 10.224 17.7302 10.824C17.0342 11.424 16.3022 11.976 15.5342 12.48C14.7902 12.96 14.0942 13.332 13.4462 13.596C12.8462 13.884 12.2222 14.136 11.5742 14.352C10.9262 14.568 10.2542 14.784 9.55822 15C9.17422 15.096 8.71822 15.144 8.19022 15.144C7.66222 15.144 7.26622 15.096 7.00222 15L6.39022 16.692C6.15022 17.556 5.73022 18.84 5.13022 20.544C4.55422 22.248 3.88222 24.12 3.11422 26.16ZM17.4062 26.556C17.2142 26.628 16.9862 26.652 16.7222 26.628C16.4822 26.604 16.0862 26.412 15.5342 26.052C14.4782 25.428 13.4222 24.672 12.3662 23.784C11.3102 22.896 10.1222 21.696 8.80222 20.184C8.29822 19.584 7.86622 19.032 7.50622 18.528C7.17022 18.024 6.81022 17.316 6.42622 16.404L5.92222 14.46L6.89422 13.92L8.19022 15.216C8.57422 16.056 9.06622 16.86 9.66622 17.628C10.2902 18.396 10.8662 19.08 11.3942 19.68C11.8262 20.184 12.4142 20.796 13.1582 21.516C13.9022 22.212 14.6942 22.884 15.5342 23.532C16.3742 24.18 17.1302 24.672 17.8022 25.008C17.9462 25.128 17.9942 25.308 17.9462 25.548C17.8982 25.788 17.8142 26.004 17.6942 26.196C17.5982 26.412 17.5022 26.532 17.4062 26.556ZM8.11822 13.164C8.67022 13.116 9.31822 12.984 10.0622 12.768C10.8062 12.528 11.5502 12.252 12.2942 11.94C12.9902 11.604 13.7222 11.208 14.4902 10.752C15.2822 10.272 16.0142 9.744 16.6862 9.168C17.3582 8.592 17.8982 7.992 18.3062 7.368C18.7382 6.744 18.9302 6.12 18.8822 5.496C18.8822 5.184 18.7622 4.86 18.5222 4.524C18.2822 4.188 17.9942 3.888 17.6582 3.624C17.3222 3.36 16.9982 3.18 16.6862 3.084C15.7262 2.844 14.9342 2.688 14.3102 2.616C13.6862 2.544 13.2062 2.592 12.8702 2.76C12.5342 2.904 12.3062 3.216 12.1862 3.696C12.1862 3.768 12.0902 4.008 11.8982 4.416C11.7062 4.824 11.4662 5.328 11.1782 5.928C10.9142 6.528 10.6502 7.164 10.3862 7.836C9.69022 9.252 9.16222 10.332 8.80222 11.076C8.44222 11.796 8.21422 12.3 8.11822 12.588C8.02222 12.876 8.02222 13.068 8.11822 13.164ZM26.9946 22.74C26.4906 23.172 25.9026 23.424 25.2306 23.496C24.5826 23.568 23.9466 23.472 23.3226 23.208C22.6986 22.92 22.1826 22.488 21.7746 21.912C21.3666 21.384 21.1026 20.784 20.9826 20.112C20.8626 19.416 20.8506 18.516 20.9466 17.412C21.0186 16.476 21.3186 15.54 21.8466 14.604C22.3746 13.644 23.0106 12.792 23.7546 12.048C24.5226 11.304 25.2786 10.788 26.0226 10.5C26.3826 10.26 26.6826 10.152 26.9226 10.176C27.1866 10.176 27.5826 10.2 28.1106 10.248C28.6626 10.32 29.0706 10.428 29.3346 10.572C29.6226 10.716 29.8506 10.908 30.0186 11.148C30.3786 11.508 30.6186 11.868 30.7386 12.228C30.8586 12.564 30.9186 12.9 30.9186 13.236C30.8226 13.764 30.4626 14.412 29.8386 15.18C29.2386 15.924 28.4466 16.536 27.4626 17.016C26.9346 17.184 26.3586 17.256 25.7346 17.232C25.1106 17.208 24.5946 17.052 24.1866 16.764C23.7306 16.572 23.4306 16.608 23.2866 16.872C23.1426 17.112 23.0106 17.712 22.8906 18.672C22.7946 19.584 22.8666 20.256 23.1066 20.688C23.3466 21.096 23.6706 21.336 24.0786 21.408C24.5586 21.504 24.9306 21.576 25.1946 21.624C25.4826 21.648 25.8306 21.54 26.2386 21.3C26.6226 21.06 26.8626 20.928 26.9586 20.904C27.0546 20.856 27.1266 20.808 27.1746 20.76C27.2466 20.688 27.4026 20.532 27.6426 20.292C27.8106 20.124 27.9426 20.004 28.0386 19.932C28.1346 19.836 28.2426 19.788 28.3626 19.788C28.4826 19.788 28.5906 19.848 28.6866 19.968C28.7826 20.064 28.8786 20.136 28.9746 20.184C29.2146 20.184 29.2626 20.328 29.1186 20.616C28.9986 20.904 28.7466 21.252 28.3626 21.66C27.9786 22.044 27.5226 22.404 26.9946 22.74ZM26.9586 15.108C27.2226 14.988 27.4986 14.82 27.7866 14.604C28.0746 14.364 28.3146 14.112 28.5066 13.848C28.7226 13.56 28.8306 13.32 28.8306 13.128C28.8306 12.792 28.6746 12.516 28.3626 12.3C28.0506 12.06 27.5826 12.024 26.9586 12.192C26.6946 12.264 26.3946 12.444 26.0586 12.732C25.7226 12.996 25.3986 13.296 25.0866 13.632C24.7986 13.968 24.5586 14.268 24.3666 14.532C24.1986 14.796 24.1386 14.952 24.1866 15C24.2586 15.12 24.4626 15.216 24.7986 15.288C25.1346 15.336 25.5066 15.348 25.9146 15.324C26.3466 15.3 26.6946 15.228 26.9586 15.108ZM36.2896 23.604C35.5936 23.724 34.9576 23.688 34.3816 23.496C33.8056 23.28 33.3376 22.932 32.9776 22.452C32.6416 21.948 32.4736 21.312 32.4736 20.544C32.4016 19.824 32.4856 18.996 32.7256 18.06C32.9656 17.1 33.3136 16.14 33.7696 15.18C34.2496 14.22 34.7656 13.392 35.3176 12.696C35.7976 12.12 36.2776 11.592 36.7576 11.112C37.2376 10.632 37.6696 10.308 38.0536 10.14C38.3896 9.996 38.7016 9.912 38.9896 9.888C39.3016 9.84 39.5536 9.816 39.7456 9.816C40.1296 9.912 40.5376 10.092 40.9696 10.356C41.4256 10.596 41.6536 10.86 41.6536 11.148C41.6536 11.148 41.6776 11.184 41.7256 11.256C41.7976 11.304 41.8336 11.328 41.8336 11.328C41.9776 11.328 42.0976 11.484 42.1936 11.796C42.3136 12.108 42.3856 12.468 42.4096 12.876C42.4336 13.26 42.3736 13.584 42.2296 13.848C42.1336 14.304 41.9656 14.7 41.7256 15.036C41.4856 15.372 41.2696 15.54 41.0776 15.54C40.9816 15.54 40.8856 15.552 40.7896 15.576C40.7176 15.576 40.6816 15.636 40.6816 15.756C40.6816 15.876 40.6096 15.924 40.4656 15.9C40.3456 15.876 40.2136 15.804 40.0696 15.684C39.9256 15.54 39.8176 15.372 39.7456 15.18C39.7456 15.06 39.7936 14.856 39.8896 14.568C39.9856 14.28 40.0816 13.908 40.1776 13.452C40.3216 12.78 40.3096 12.348 40.1416 12.156C39.9736 11.94 39.6496 11.928 39.1696 12.12C38.5696 12.456 37.9936 12.924 37.4416 13.524C36.9136 14.124 36.4216 14.904 35.9656 15.864C35.5096 16.8 35.1016 17.976 34.7416 19.392C34.5976 19.944 34.5376 20.424 34.5616 20.832C34.6096 21.24 34.6696 21.456 34.7416 21.48C35.0776 21.576 35.5336 21.6 36.1096 21.552C36.6856 21.48 37.1056 21.372 37.3696 21.228C37.7536 21.036 38.1856 20.784 38.6656 20.472C39.1456 20.136 39.5656 19.836 39.9256 19.572C40.0456 19.5 40.1896 19.38 40.3576 19.212C40.5256 19.044 40.7056 18.912 40.8976 18.816C41.0896 18.528 41.2576 18.36 41.4016 18.312C41.5456 18.264 41.7616 18.24 42.0496 18.24C42.2416 18.288 42.4216 18.36 42.5896 18.456C42.7576 18.552 42.8656 18.648 42.9136 18.744C42.9856 18.84 42.9496 18.924 42.8056 18.996C42.7096 18.996 42.6496 19.032 42.6256 19.104C42.6256 19.152 42.6256 19.176 42.6256 19.176C42.6736 19.272 42.5656 19.476 42.3016 19.788C42.0616 20.076 41.7496 20.4 41.3656 20.76C40.9816 21.12 40.6096 21.432 40.2496 21.696C39.9136 21.936 39.6736 22.056 39.5296 22.056C39.2896 22.056 39.1696 22.128 39.1696 22.272C39.1696 22.32 38.9896 22.44 38.6296 22.632C38.2936 22.824 37.8976 23.016 37.4416 23.208C37.0096 23.4 36.6256 23.532 36.2896 23.604ZM46.9625 22.884C46.6025 22.836 46.2905 22.584 46.0265 22.128C45.7865 21.648 45.6425 21.216 45.5945 20.832C45.6185 20.64 45.6425 20.364 45.6665 20.004C45.7145 19.644 45.7625 19.272 45.8105 18.888C45.9065 18.432 46.0385 17.88 46.2065 17.232C46.3745 16.56 46.5425 15.888 46.7105 15.216C46.9025 14.544 47.0705 13.968 47.2145 13.488C47.3585 13.008 47.4545 12.72 47.5025 12.624C47.6225 12.432 47.8145 12.384 48.0785 12.48C48.3425 12.576 48.5585 12.72 48.7265 12.912C48.8705 13.104 48.9545 13.332 48.9785 13.596C49.0265 13.86 48.9905 14.244 48.8705 14.748C48.7745 15.252 48.5825 15.996 48.2945 16.98C48.0305 17.94 47.8265 18.72 47.6825 19.32C47.5625 19.896 47.5145 20.508 47.5385 21.156C47.4425 21.972 47.3705 22.476 47.3225 22.668C47.2745 22.836 47.1545 22.908 46.9625 22.884ZM51.1025 8.52C51.0065 8.592 50.9105 8.628 50.8145 8.628C50.7425 8.604 50.6105 8.532 50.4185 8.412C50.2505 8.388 50.0345 8.28 49.7705 8.088C49.5305 7.872 49.3145 7.656 49.1225 7.44C48.9545 7.2 48.8705 7.056 48.8705 7.008C48.8465 6.768 48.8585 6.468 48.9065 6.108C48.9785 5.724 49.1105 5.388 49.3025 5.1C49.4945 4.788 49.7705 4.62 50.1305 4.596C50.2265 4.596 50.3105 4.608 50.3825 4.632C50.4545 4.656 50.6705 4.74 51.0305 4.884C51.2225 5.244 51.4145 5.652 51.6065 6.108C51.7985 6.54 51.8825 6.972 51.8585 7.404C51.8345 7.812 51.5825 8.184 51.1025 8.52ZM52.0213 30.3C51.7333 30.492 51.4333 30.48 51.1213 30.264C50.8333 30.048 50.6173 29.724 50.4733 29.292C50.3293 28.86 50.3413 28.404 50.5093 27.924C50.5573 27.78 50.6293 27.54 50.7253 27.204C50.8213 26.892 50.8813 26.616 50.9053 26.376C50.9293 26.208 51.0013 25.92 51.1213 25.512C51.2413 25.128 51.3733 24.744 51.5173 24.36C51.6853 23.976 51.8173 23.7 51.9133 23.532C52.0573 23.292 52.1533 23.016 52.2013 22.704C52.2733 22.392 52.3093 22.152 52.3093 21.984C52.3573 21.816 52.4173 21.624 52.4893 21.408C52.5853 21.192 52.6813 21.024 52.7773 20.904C52.8253 20.712 52.8973 20.508 52.9933 20.292C53.0893 20.052 53.1973 19.848 53.3173 19.68C53.3653 19.512 53.4013 19.308 53.4253 19.068C53.4733 18.828 53.5453 18.696 53.6413 18.672C53.6653 18.576 53.6773 18.48 53.6773 18.384C53.7013 18.288 53.7493 18.156 53.8213 17.988C53.8693 17.724 53.9773 17.34 54.1453 16.836C54.3133 16.332 54.5173 15.78 54.7573 15.18C55.0213 14.484 55.1413 13.824 55.1173 13.2C55.1173 12.552 54.9373 12.156 54.5773 12.012C54.3853 11.916 54.2653 11.784 54.2173 11.616C54.1693 11.424 54.1933 11.232 54.2893 11.04C54.3853 10.848 54.5293 10.716 54.7213 10.644C54.9373 10.548 55.1653 10.512 55.4053 10.536C55.6693 10.56 55.8973 10.608 56.0893 10.68C56.2813 10.728 56.3653 10.776 56.3413 10.824C56.3413 10.944 56.4013 11.016 56.5213 11.04C56.5693 10.968 56.6653 11.052 56.8093 11.292C56.9773 11.508 57.1333 11.76 57.2773 12.048C57.4213 12.336 57.4933 12.54 57.4933 12.66C57.4453 12.756 57.4213 12.816 57.4213 12.84C57.4213 12.84 57.4693 12.84 57.5653 12.84C57.5653 12.84 57.6973 12.78 57.9613 12.66C58.2253 12.516 58.5013 12.36 58.7893 12.192C59.1013 12 59.3053 11.856 59.4013 11.76C59.4013 11.76 59.4613 11.736 59.5813 11.688C59.7253 11.616 59.8453 11.532 59.9413 11.436C60.4213 11.244 60.9373 11.208 61.4893 11.328C62.0653 11.448 62.5213 11.664 62.8573 11.976C63.3373 12.576 63.5773 13.152 63.5773 13.704C63.6013 14.256 63.4453 14.952 63.1093 15.792C63.0613 15.912 62.9533 16.116 62.7853 16.404C62.6413 16.668 62.4973 16.92 62.3533 17.16C62.2093 17.376 62.1373 17.484 62.1373 17.484C61.5853 18.348 60.9373 19.068 60.1933 19.644C59.4493 20.22 58.6933 20.724 57.9253 21.156C57.6853 21.324 57.4333 21.456 57.1693 21.552C56.9293 21.624 56.7133 21.672 56.5213 21.696C56.3293 21.696 56.1973 21.672 56.1253 21.624C55.8613 21.432 55.6213 21.024 55.4053 20.4C55.2853 20.712 55.1653 21.024 55.0453 21.336C54.9493 21.624 54.8893 21.816 54.8653 21.912C54.8413 22.08 54.8173 22.224 54.7933 22.344C54.7693 22.44 54.7093 22.524 54.6133 22.596C54.6133 22.596 54.6013 22.644 54.5773 22.74C54.5533 22.836 54.4693 22.98 54.3253 23.172C54.0853 23.868 53.8693 24.468 53.6773 24.972C53.4853 25.5 53.3293 25.944 53.2093 26.304C53.0893 26.688 52.9933 27.024 52.9213 27.312C52.8733 27.96 52.7413 28.596 52.5253 29.22C52.3093 29.868 52.1413 30.228 52.0213 30.3ZM56.3053 20.04C56.4013 19.992 56.6053 19.86 56.9173 19.644C57.2533 19.404 57.6253 19.128 58.0333 18.816C58.4413 18.48 58.8133 18.168 59.1493 17.88C59.5093 17.592 59.7493 17.376 59.8693 17.232C60.0613 17.016 60.2413 16.788 60.4093 16.548C60.5773 16.284 60.7093 15.996 60.8053 15.684C60.8773 15.492 60.9613 15.276 61.0573 15.036C61.1533 14.796 61.2373 14.568 61.3093 14.352C61.4053 14.16 61.4413 13.968 61.4173 13.776C61.4173 13.56 61.3453 13.38 61.2013 13.236C61.1053 13.212 60.8173 13.284 60.3373 13.452C59.8573 13.596 59.3293 13.848 58.7533 14.208C58.1773 14.544 57.6733 14.988 57.2413 15.54C56.7373 16.188 56.3653 16.86 56.1253 17.556C55.9093 18.252 55.8133 18.84 55.8373 19.32C55.8853 19.8 56.0413 20.04 56.3053 20.04ZM68.0028 23.136C67.0668 22.752 66.4548 22.224 66.1668 21.552C65.9028 20.856 65.8548 19.788 66.0228 18.348C66.0708 17.604 66.0948 17.112 66.0948 16.872C66.0948 16.632 65.9628 16.392 65.6988 16.152C65.6268 16.056 65.4948 15.924 65.3028 15.756C65.1348 15.588 65.0628 15.444 65.0868 15.324C65.0628 15.156 65.0748 14.976 65.1228 14.784C65.1708 14.568 65.2428 14.46 65.3388 14.46C65.4348 14.46 65.5308 14.436 65.6268 14.388C65.7468 14.34 65.8548 14.34 65.9508 14.388C66.0468 14.388 66.1548 14.4 66.2748 14.424C66.3948 14.448 66.4548 14.508 66.4548 14.604C66.5508 14.772 66.7068 14.796 66.9228 14.676C67.1388 14.532 67.3668 14.22 67.6068 13.74C67.8468 13.356 68.1588 12.972 68.5428 12.588C68.9508 12.204 69.3468 11.856 69.7308 11.544C70.1388 11.208 70.4748 10.968 70.7388 10.824C70.8588 10.776 71.0388 10.716 71.2788 10.644C71.5188 10.572 71.7708 10.512 72.0348 10.464C72.3228 10.416 72.5628 10.404 72.7548 10.428C73.1868 10.452 73.5468 10.572 73.8348 10.788C74.1468 11.004 74.4348 11.256 74.6988 11.544C75.0108 11.76 75.2028 12.048 75.2748 12.408C75.3708 12.768 75.3948 13.152 75.3468 13.56C75.2988 13.968 75.1908 14.34 75.0228 14.676C74.9508 14.916 74.7468 15.204 74.4108 15.54C74.0748 15.876 73.6908 16.2 73.2588 16.512C72.8268 16.824 72.4308 17.052 72.0708 17.196C71.7588 17.268 71.3508 17.328 70.8468 17.376C70.3668 17.424 69.9108 17.448 69.4788 17.448C69.0708 17.424 68.7948 17.376 68.6508 17.304C68.4828 17.208 68.3508 17.34 68.2548 17.7C68.1588 18.06 68.0868 18.576 68.0388 19.248C67.9908 19.776 67.9908 20.16 68.0388 20.4C68.0868 20.64 68.1348 20.808 68.1828 20.904C68.3508 21.072 68.5788 21.288 68.8668 21.552C69.1788 21.792 69.6108 21.828 70.1628 21.66C70.6188 21.54 71.0628 21.228 71.4948 20.724C71.9508 20.22 72.3708 19.812 72.7548 19.5C72.8508 19.332 73.0068 19.236 73.2228 19.212C73.4628 19.164 73.7148 19.176 73.9788 19.248C74.2428 19.416 74.3508 19.62 74.3028 19.86C74.2788 20.076 74.1588 20.412 73.9428 20.868C73.8708 21.036 73.7028 21.252 73.4388 21.516C73.1988 21.756 72.9228 22.008 72.6108 22.272C72.3228 22.512 72.0588 22.704 71.8188 22.848C71.0988 23.232 70.4268 23.436 69.8028 23.46C69.1788 23.46 68.5788 23.352 68.0028 23.136ZM70.1268 15.828C70.6548 15.708 71.0748 15.624 71.3868 15.576C71.6988 15.528 71.9988 15.396 72.2868 15.18C72.5748 14.94 72.9348 14.496 73.3668 13.848C73.4628 13.584 73.4868 13.32 73.4388 13.056C73.4148 12.792 73.3548 12.612 73.2588 12.516C73.0428 12.276 72.7788 12.204 72.4668 12.3C72.1788 12.372 71.9028 12.504 71.6388 12.696C71.4708 12.768 71.2188 12.948 70.8828 13.236C70.5708 13.5 70.2588 13.812 69.9468 14.172C69.6348 14.508 69.3828 14.82 69.1908 15.108C68.9988 15.396 68.9508 15.564 69.0468 15.612C68.9988 15.708 69.1308 15.768 69.4428 15.792C69.7788 15.816 70.0068 15.828 70.1268 15.828ZM80.5018 23.496C79.3018 23.496 78.4258 23.064 77.8738 22.2C77.7058 21.96 77.6218 21.72 77.6218 21.48C77.6458 21.216 77.7178 21.036 77.8378 20.94C77.9818 20.844 78.1498 20.928 78.3418 21.192C78.6778 21.384 79.1578 21.48 79.7818 21.48C80.0938 21.48 80.4178 21.456 80.7538 21.408C81.0898 21.336 81.4258 21.24 81.7618 21.12C82.1218 20.952 82.3618 20.808 82.4818 20.688C82.6018 20.544 82.5778 20.424 82.4098 20.328H82.4458C81.8218 20.16 81.1858 19.896 80.5378 19.536C79.9138 19.152 79.3738 18.744 78.9178 18.312C78.4618 17.856 78.1978 17.448 78.1258 17.088C77.9338 16.344 77.9818 15.588 78.2698 14.82C78.5578 14.028 78.9658 13.332 79.4938 12.732C79.6858 12.612 79.9258 12.468 80.2138 12.3C80.5018 12.108 80.7298 12 80.8978 11.976V12.012C81.3538 11.532 81.9058 11.148 82.5538 10.86C83.2258 10.572 83.9338 10.308 84.6778 10.068L85.2178 9.996C85.5058 9.948 85.7458 9.924 85.9378 9.924C85.9138 9.924 85.9618 9.948 86.0818 9.996C86.2018 10.02 86.3098 10.044 86.4058 10.068C86.5498 10.14 86.6698 10.176 86.7658 10.176C87.0778 10.224 87.3658 10.368 87.6298 10.608C87.8938 10.848 88.0978 11.136 88.2418 11.472C88.4098 11.784 88.4698 12.084 88.4218 12.372C88.3738 12.828 88.2298 13.236 87.9898 13.596C87.7738 13.956 87.5098 14.16 87.1978 14.208C87.2458 14.184 87.2098 14.148 87.0898 14.1C86.9938 14.028 86.8858 13.956 86.7658 13.884L86.6578 13.956C86.6578 13.956 86.6458 13.932 86.6218 13.884C86.6218 13.812 86.5978 13.728 86.5498 13.632C86.4778 13.488 86.4418 13.332 86.4418 13.164C86.4418 12.972 86.4538 12.768 86.4778 12.552C86.5258 12.288 86.5258 12.132 86.4778 12.084C86.4538 12.036 86.2978 12 86.0098 11.976C85.6738 11.904 85.1818 11.964 84.5338 12.156C83.9098 12.348 83.3818 12.612 82.9498 12.948C82.4218 13.284 81.9778 13.608 81.6178 13.92C81.2578 14.208 80.9698 14.496 80.7538 14.784C80.5378 15.048 80.3458 15.36 80.1778 15.72C80.0578 15.888 79.9498 16.056 79.8538 16.224C79.7818 16.368 79.7458 16.5 79.7458 16.62C79.7458 16.884 79.9378 17.16 80.3218 17.448C80.7298 17.712 81.3298 18.024 82.1218 18.384C82.7458 18.648 83.2738 18.936 83.7058 19.248C84.1378 19.56 84.4378 19.92 84.6058 20.328C84.6538 20.424 84.6658 20.544 84.6418 20.688C84.6418 20.808 84.6178 20.892 84.5698 20.94C84.6178 20.988 84.6418 21.024 84.6418 21.048V21.012C84.8338 21.3 84.8338 21.6 84.6418 21.912C84.4738 22.224 84.1738 22.5 83.7418 22.74C83.3338 22.956 82.8298 23.124 82.2298 23.244H82.2658C81.9538 23.34 81.6418 23.412 81.3298 23.46C81.0418 23.484 80.7658 23.496 80.5018 23.496ZM92.2674 17.592C92.1234 17.592 91.9434 17.592 91.7274 17.592C91.5114 17.568 91.2714 17.508 91.0074 17.412C90.6474 17.412 90.4074 17.376 90.2874 17.304C90.1674 17.208 90.0594 17.076 89.9634 16.908C89.6994 16.548 89.6754 16.308 89.8914 16.188C90.1074 16.044 90.6594 15.924 91.5474 15.828C91.9554 15.732 92.5554 15.66 93.3474 15.612C94.1634 15.54 95.0394 15.492 95.9754 15.468C96.9114 15.42 97.7994 15.384 98.6394 15.36C99.4794 15.336 100.139 15.324 100.619 15.324C101.243 15.324 101.663 15.348 101.879 15.396C102.095 15.444 102.335 15.6 102.599 15.864C102.959 16.224 103.091 16.572 102.995 16.908C102.899 17.22 102.575 17.328 102.023 17.232C101.903 17.232 101.711 17.244 101.447 17.268C101.207 17.292 100.931 17.316 100.619 17.34C100.331 17.364 100.043 17.388 99.7554 17.412C99.6114 17.412 99.2154 17.424 98.5674 17.448C97.9194 17.472 97.1634 17.496 96.2994 17.52C95.4594 17.544 94.6554 17.568 93.8874 17.592C93.1434 17.592 92.6034 17.592 92.2674 17.592ZM96.8034 22.884C96.4434 23.148 96.1914 23.172 96.0474 22.956C95.9274 22.74 95.8194 22.188 95.7234 21.3C95.6274 20.892 95.5434 20.292 95.4714 19.5C95.4234 18.684 95.3754 17.808 95.3274 16.872C95.3034 15.936 95.2794 15.048 95.2554 14.208C95.2314 13.368 95.2194 12.708 95.2194 12.228C95.2194 11.604 95.2434 11.184 95.2914 10.968C95.3634 10.752 95.5194 10.512 95.7594 10.248C96.1194 9.888 96.4554 9.756 96.7674 9.852C97.1034 9.948 97.2234 10.272 97.1274 10.824C97.1514 10.944 97.1634 11.136 97.1634 11.4C97.1874 11.64 97.2114 11.916 97.2354 12.228C97.2594 12.516 97.2834 12.804 97.3074 13.092C97.3074 13.236 97.3194 13.632 97.3434 14.28C97.3674 14.928 97.3914 15.684 97.4154 16.548C97.4394 17.388 97.4514 18.192 97.4514 18.96C97.4754 19.704 97.4874 20.244 97.4874 20.58C97.4874 20.724 97.4754 20.904 97.4514 21.12C97.4514 21.336 97.4034 21.576 97.3074 21.84C97.3074 22.2 97.2594 22.44 97.1634 22.56C97.0914 22.68 96.9714 22.788 96.8034 22.884Z" fill="white"/>
</svg>
