<svg width="18" height="18" viewBox="0 0 18 18" fill="none" xmlns="http://www.w3.org/2000/svg">
<path d="M9 3C8.76263 3.17038 8.57031 3.39598 8.43964 3.65732C8.30897 3.91866 8.24388 4.20788 8.25 4.5C8.24388 4.79212 8.30897 5.08134 8.43964 5.34268C8.57031 5.60402 8.76263 5.82962 9 6M12 3C11.7626 3.17038 11.5703 3.39598 11.4396 3.65732C11.309 3.91866 11.2439 4.20788 11.25 4.5C11.2439 4.79212 11.309 5.08134 11.4396 5.34268C11.5703 5.60402 11.7626 5.82962 12 6M6 3C5.76263 3.17038 5.57031 3.39598 5.43964 3.65732C5.30897 3.91866 5.24388 4.20788 5.25 4.5C5.24388 4.79212 5.30897 5.08134 5.43964 5.34268C5.57031 5.60402 5.76263 5.82962 6 6M3 8.25H15C15.1989 8.25 15.3897 8.32902 15.5303 8.46967C15.671 8.61032 15.75 8.80109 15.75 9V9.375C15.75 10.5 13.8623 13.5548 12.75 14.25V15C12.75 15.1989 12.671 15.3897 12.5303 15.5303C12.3897 15.671 12.1989 15.75 12 15.75H6C5.80109 15.75 5.61032 15.671 5.46967 15.5303C5.32902 15.3897 5.25 15.1989 5.25 15V14.25C3.98475 13.4595 2.25 10.5 2.25 9.375V9C2.25 8.80109 2.32902 8.61032 2.46967 8.46967C2.61032 8.32902 2.80109 8.25 3 8.25Z" stroke="black" stroke-linecap="round" stroke-linejoin="round"/>
</svg>
