<svg width="18" height="18" viewBox="0 0 18 18" fill="none" xmlns="http://www.w3.org/2000/svg">
<path d="M9 14.625C10.4918 14.625 11.9226 14.0324 12.9775 12.9775C14.0324 11.9226 14.625 10.4918 14.625 9C14.625 7.50816 14.0324 6.07742 12.9775 5.02252C11.9226 3.96763 10.4918 3.375 9 3.375C7.50816 3.375 6.07742 3.96763 5.02252 5.02252C3.96763 6.07742 3.375 7.50816 3.375 9C3.375 10.4918 3.96763 11.9226 5.02252 12.9775C6.07742 14.0324 7.50816 14.625 9 14.625ZM9 15.75C8.11358 15.75 7.23583 15.5754 6.41689 15.2362C5.59794 14.897 4.85382 14.3998 4.22703 13.773C3.60023 13.1462 3.10303 12.4021 2.76381 11.5831C2.42459 10.7642 2.25 9.88642 2.25 9C2.25 8.11358 2.42459 7.23583 2.76381 6.41689C3.10303 5.59794 3.60023 4.85382 4.22703 4.22703C4.85382 3.60023 5.59794 3.10303 6.41689 2.76381C7.23583 2.42459 8.11358 2.25 9 2.25C10.7902 2.25 12.5071 2.96116 13.773 4.22703C15.0388 5.4929 15.75 7.20979 15.75 9C15.75 10.7902 15.0388 12.5071 13.773 13.773C12.5071 15.0388 10.7902 15.75 9 15.75Z" fill="black"/>
<path d="M5.13788 14.4945L6.11213 15.057L5.26838 16.5184C5.23171 16.5829 5.18265 16.6395 5.12402 16.6849C5.0654 16.7304 4.99836 16.7638 4.92677 16.7832C4.85517 16.8026 4.78045 16.8077 4.70688 16.7982C4.63332 16.7886 4.56237 16.7646 4.49813 16.7275C4.43389 16.6904 4.37761 16.641 4.33255 16.582C4.28749 16.5231 4.25453 16.4558 4.23557 16.3841C4.21661 16.3124 4.21202 16.2377 4.22207 16.1642C4.23212 16.0907 4.25661 16.0199 4.29413 15.9559L5.13788 14.4945ZM12.8621 14.4945L11.8879 15.057L12.7316 16.5184C12.7683 16.5829 12.8173 16.6395 12.876 16.6849C12.9346 16.7304 13.0016 16.7638 13.0732 16.7832C13.1448 16.8026 13.2196 16.8077 13.2931 16.7982C13.3667 16.7886 13.4376 16.7646 13.5019 16.7275C13.5661 16.6904 13.6224 16.641 13.6674 16.582C13.7125 16.5231 13.7455 16.4558 13.7644 16.3841C13.7834 16.3124 13.788 16.2377 13.7779 16.1642C13.7679 16.0907 13.7434 16.0199 13.7059 15.9559L12.8621 14.4945ZM9 9H11.8125C11.9617 9 12.1048 9.05926 12.2102 9.16475C12.3157 9.27024 12.375 9.41332 12.375 9.5625C12.375 9.71168 12.3157 9.85476 12.2102 9.96025C12.1048 10.0657 11.9617 10.125 11.8125 10.125H8.4375C8.28832 10.125 8.14524 10.0657 8.03975 9.96025C7.93426 9.85476 7.875 9.71168 7.875 9.5625V5.625C7.875 5.47582 7.93426 5.33274 8.03975 5.22725C8.14524 5.12176 8.28832 5.0625 8.4375 5.0625C8.58669 5.0625 8.72976 5.12176 8.83525 5.22725C8.94074 5.33274 9 5.47582 9 5.625V9ZM1.59075 5.48887C1.23177 4.94792 1.07099 4.29943 1.1357 3.65344C1.2004 3.00744 1.4866 2.40373 1.94574 1.94472C2.40488 1.48571 3.00868 1.19968 3.6547 1.13517C4.30071 1.07065 4.94915 1.23161 5.49 1.59075L4.6665 2.41425C4.3516 2.26386 3.99783 2.21479 3.65389 2.2738C3.30995 2.33281 2.99276 2.497 2.74601 2.74375C2.49925 2.99051 2.33506 3.3077 2.27605 3.65164C2.21704 3.99558 2.26611 4.34935 2.4165 4.66425L1.59188 5.48887H1.59075ZM16.2731 5.48887C16.6316 4.94801 16.792 4.29982 16.7272 3.65418C16.6624 3.00854 16.3764 2.40517 15.9175 1.94634C15.4587 1.48751 14.8553 1.20145 14.2097 1.13664C13.5641 1.07183 12.9159 1.23227 12.375 1.59075L13.1985 2.41425C13.5134 2.26386 13.8672 2.21479 14.2111 2.2738C14.5551 2.33281 14.8722 2.497 15.119 2.74375C15.3658 2.99051 15.5299 3.3077 15.589 3.65164C15.648 3.99558 15.5989 4.34935 15.4485 4.66425L16.2731 5.48887Z" fill="black"/>
</svg>
